#!OML:ASF E:/inclinewalkrobotboard/Project1/Captureday1/Session1/subject1.ASF
:FULLY-SPECIFIED
:DEGREES
201
root 0 0 0 -1.1488212849039008 -2.8563493966218663 -0.8580265950576014
lowerback 10.955919483565118 0.5662098766205496 0.47236809485153447
upperback -1.1388130323918508 0.8828124668227839 0.9023304294083028
thorax -7.320696020689392 0.4065511366335368 0.43724304016700666
lowerneck -13.359201219662674 -1.388243867103559 0.2447385202930203
upperneck 19.04988908128578 -1.3700570781430206 -2.38549137224779
head 8.203661757299505 -0.7958309608516864 -1.0186914030144067
rclavicle -4.610541984488506E-16 -2.7375475455501243E-16
rhumerus -10.985950010189494 -6.233932080966811 -66.79715859323252
rradius 43.68854227881519
rwrist 12.381500198918548
rhand -23.865313477326904 -6.8038061180339025
rfingers 7.125020000000131
rthumb 2.837128422190492 -36.93095210823881
lclavicle -9.85172937612839E-16 -7.922358844584079E-16
lhumerus -12.311328242217009 -4.1225738146688995 68.63421622190536
lradius 43.74322155323581
lwrist -5.140516996476632
lhand -33.34718690372836 -10.93205662631922
lfingers 7.12502000000013
lthumb -6.638948347000448 18.139917595347285
rfemur 12.645514454331813 7.112118456264584 36.708322265513225
rtibia 41.10027317088198
rfoot -11.318400699804377 -0.6896351036005708
rtoes 8.963510203383565
lfemur -24.488061423702007 -4.409877993471499 -14.703895466338155
ltibia 16.335765263319068
lfoot -9.592949966217832 6.400361754817611
ltoes 1.4470359608269678
202
root 0 0 0 -1.158063998290781 -2.8532375517654884 -0.8680920526790397
lowerback 10.952101629890201 0.5649079714983379 0.4748947669161656
upperback -1.1260369256872211 0.8820520339744178 0.9079561198666979
thorax -7.3044348827154835 0.40600663567540907 0.4422119092952374
lowerneck -13.386281359127155 -1.3998838326748622 0.22841386321869622
upperneck 19.05049912437812 -1.3885119771128562 -2.3631193086661875
head 8.208512994730313 -0.8034698534894189 -1.0102115007602444
rclavicle -4.614260645251551E-16 -2.58760670215528E-16
rhumerus -11.265996130973154 -6.42218663581305 -66.9691498537374
rradius 43.42321197922668
rwrist 12.249008542835126
rhand -23.771136543069353 -6.347508578489471
rfingers 7.125020000000132
rthumb 2.9315606318143606 -36.481275438110785
lclavicle -9.850697067311591E-16 -7.922259931593438E-16
lhumerus -12.504474497759757 -4.0771053314539 68.77273257175263
lradius 43.587501514585576
lwrist -5.031774705881042
lhand -33.28097719675725 -10.573890270845984
lfingers 7.12502000000013
lthumb -6.5755247056464246 18.502211405017214
rfemur 11.443533632990846 6.672020247559665 36.05756875906844
rtibia 43.43581796734966
rfoot -10.146039205227332 -0.6343504393942414
rtoes 9.339367874876862
lfemur -19.20670664126851 -4.907558954956764 -17.22091005199604
ltibia 12.46367879820033
lfoot -11.688724146656897 6.482426960664755
ltoes 1.1098533777883777
203
root 0 0 0 -1.1671390674025814 -2.850091601989506 -0.8779850077927622
lowerback 10.948373987272511 0.5636185050437006 0.4775690792266395
upperback -1.1134472159466822 0.8813814918421128 0.9134636922509465
thorax -7.288533989478204 0.4054496994995653 0.44713437669845657
lowerneck -13.412744905118315 -1.4113538606118157 0.21243558504273147
upperneck 19.050979774055886 -1.406711700972342 -2.3411631578192678
head 8.213245843866819 -0.811012873958209 -1.0018957959004786
rclavicle -4.62969819693889E-16 -2.435039085769364E-16
rhumerus -11.546695342618051 -6.610738589567749 -67.1415367772911
rradius 43.15673880692829
rwrist 12.116156789021757
rhand -23.676704008652102 -5.888557915812433
rfingers 7.1250200000001325
rthumb 3.026780706442872 -36.02984430944302
lclavicle -9.872888973343742E-16 -7.92355605424831E-16
lhumerus -12.680203404054145 -4.0358354945418045 68.89910747658095
lradius 43.445220181355
lwrist -4.931752973803488
lhand -33.220500900486336 -10.245577581984808
lfingers 7.125020000000131
lthumb -6.517528374090972 18.83210752025
rfemur 9.705852771308088 6.1118466499874895 35.1467186068657
rtibia 46.29144296203156
rfoot -8.631564567479078 -0.6205182020579958
rtoes 9.767643660091768
lfemur -13.64389122988358 -5.270121445253649 -19.778256130560784
ltibia 9.51694053733399
lfoot -13.439993356278768 6.162982235193228
ltoes 0.6752491784141554
204
root 0 0 0 -1.174772175271253 -2.847351563014403 -0.8863461427594329
lowerback 10.945227725040482 0.5625015146015696 0.4798317639562839
upperback -1.1027662721046072 0.8808672282528053 0.9181092604229365
thorax -7.275102566271161 0.404962660717243 0.45135243473175135
lowerneck -13.434985538097095 -1.421053506385644 0.19893322100239996
upperneck 19.05128690516223 -1.4221893163489523 -2.322666523389296
head 8.217211826572555 -0.8174149881987771 -0.9948555312046297
rclavicle -4.645138092541371E-16 -2.2962108188710603E-16
rhumerus -11.794047546224052 -6.776680350162846 -67.29337662888783
rradius 42.92184285998655
rwrist 11.999197748107774
rhand -23.59353529189044 -5.4832617124371685
rfingers 7.125020000000133
rthumb 3.110942600459467 -35.631898832484175
lclavicle -9.90460229632632E-16 -7.924913362861615E-16
lhumerus -12.82117165492006 -4.002767619849124 69.00088471072891
lradius 43.330608264113216
lwrist -4.850695261770407
lhand -33.17172564742662 -9.97944808800251
lfingers 7.125020000000132
lthumb -6.470689296389828 19.096569556907962
rfemur 7.220164387972691 5.379582852735176 33.86894823266648
rtibia 49.88944179625168
rfoot -6.649256501395929 -0.6675472355370857
rtoes 10.25223865506563
lfemur -8.22434235765476 -5.509106769651332 -22.162396726190426
ltibia 7.540854704166993
lfoot -14.713105003721271 5.498681957122139
ltoes 0.19594080816541926
205
root 0 0 0 -1.229478001953108 -2.8325125407075498 -0.9470694482463216
lowerback 10.923276722275213 0.5556804935714235 0.4990334992915645
upperback -1.0300500558391008 0.8757581499682866 0.9504527014772247
thorax -7.1815024091177815 0.4018823930142173 0.4775625728861343
lowerneck -13.592447327868054 -1.4913070967593718 0.10588680092395453
upperneck 19.051744525910948 -1.5292640842612448 -2.189407169122658
head 8.245069253020494 -0.862435923480757 -0.9449035761279887
rclavicle -4.953937226520262E-16 -1.2417467954630701E-16
rhumerus -13.330519587723419 -7.807729251534427 -68.24584505464466
rradius 41.44366156988526
rwrist 11.262652088198738
rhand -23.07098326053186 -2.93644792004096
rfingers 7.1250200000001405
rthumb 3.6428561639339754 -33.11019434733071
lclavicle -1.0344608741168729E-15 -7.425197573247139E-16
lhumerus -14.427258497923152 -3.6186190937359415 70.1177586787436
lradius 42.03776673395969
lwrist -3.9450456853559785
lhand -32.639172606561054 -7.012952868879133
lfingers 7.125020000000139
lthumb -5.950227828471209 22.02217633431963
rfemur 11.601381501994172 5.643110381920405 35.628201423206434
rtibia 51.215345463870634
rfoot -6.900458236124453 0.48626539363729293
rtoes 11.492137613778933
lfemur -8.49332211986151 -5.5753024911293405 -21.88784975695985
ltibia 8.256427295625638
lfoot -13.284362492702952 4.93151770033851
ltoes 0.8048122394763837
206
root 0 0 0 -1.1686974999380353 -2.8477572106311393 -0.8790047051279308
lowerback 10.947299505118687 0.5627655849520946 0.47682163927663757
upperback -1.1091981973173302 0.8814494134053624 0.9151029516133933
thorax -7.28470852593766 0.4051443351284023 0.4495504381535449
lowerneck -13.417513930665196 -1.4136308210805153 0.20819069105321314
upperneck 19.049641456673584 -1.4134053293192903 -2.33680976380149
head 8.213952353873573 -0.8130937226086081 -0.9999947216150071
rclavicle -4.692354481392321E-16 -2.3179130186582745E-16
rhumerus -11.792367786625352 -6.774576323092104 -67.28646628495169
rradius 42.9287531686679
rwrist 12.002345944952893
rhand -23.594381002690614 -5.494955670108492
rfingers 7.125020000000133
rthumb 3.109707700825161 -35.63841560448781
lclavicle -9.83068360897841E-16 -7.957137078408658E-16
lhumerus -12.534262808489032 -4.073976121824894 68.80414095373624
lradius 43.55231897450446
lwrist -5.001543608468126
lhand -33.26890839670659 -10.499900001872351
lfingers 7.125020000000131
lthumb -6.56255517661283 18.57505526607695
rfemur -5.075047036944358 2.5851514354173806 27.980398317334952
rtibia 61.48239548268509
rfoot 0.3201248874172151 -1.7641648983872429
rtoes 10.812568179631183
lfemur 3.12289704084443 -5.594038255454419 -26.808778605452463
ltibia 6.472359729375462
lfoot -16.12815516584066 2.9505847942539303
ltoes -1.1163994074076742
207
root 0 0 0 -1.172329657485681 -2.846228186779037 -0.8845029247119478
lowerback 10.945502855697148 0.5619268239030365 0.4769273874515577
upperback -1.103609500023734 0.8809144965809103 0.9175049650875257
thorax -7.277260353391613 0.4048855273755425 0.45169647842652083
lowerneck -13.429019017955248 -1.4190551243404212 0.2011397618071435
upperneck 19.049782300308383 -1.4210611048183481 -2.328256334134122
head 8.216232516359817 -0.8163890718955136 -0.9963544590502628
rclavicle -4.63132889284874E-16 -2.14172005243778E-16
rhumerus -11.986408374383297 -6.906879903739981 -67.40799504016324
rradius 42.746455077808996
rwrist 11.911228545747367
rhand -23.530666966195227 -5.172870280714927
rfingers 7.125020000000134
rthumb 3.175432098697304 -35.333728175588334
lclavicle -9.86192937031772E-16 -7.952542084032604E-16
lhumerus -12.585017062237112 -4.0602326462568605 68.83520125894356
lradius 43.51582220860059
lwrist -4.976461585881985
lhand -33.25035434480914 -10.394818351460277
lfingers 7.125020000000131
lthumb -6.546102660569337 18.66392786168793
rfemur -10.771053428737911 1.4523333613433798 25.40267805337582
rtibia 65.62973961328032
rfoot 2.862524073397262 -2.420865254944318
rtoes 10.730806271474291
lfemur 6.772542891241271 -5.422136249667039 -28.150704636170047
ltibia 7.744434190842874
lfoot -15.84462014858417 1.4788135229544368
ltoes -1.6450865336051512
